# xmcd
#
# Track frame offsets:
#	150
#	11605
#	21400
#	34420
#	47658
#	62115
#	73733
#	85393
#	98973
#	112468
#	124693
#	138203
#	152645
#
# Disc length: 2173 seconds
#
# Revision: 0
# Processed by: cddbd v1.5.2PL0 Copyright (c) Steve Scherf et al.
# Submitted via: EasyCDDAExtractor 2010.6.0.0
#
DISCID=ba087b0d
DTITLE=Will Tura - Het beste van
DYEAR=1900
DGENRE=
TTITLE0=Eenzaam zonder jou
TTITLE1=Als de zomer weer voorbij zal zijn
TTITLE2=Arme joe
TTITLE3=El Bandido
TTITLE4=Geen zomer zonder jou
TTITLE5=Viva El amor
TTITLE6=Vaarwel en tot weerziens
TTITLE7=Liefdesverdriet
TTITLE8=De zigeurner
TTITLE9=Arriverderci
TTITLE10=Heimwee naar huis
TTITLE11=Vlaanderen mijn land
TTITLE12=Draai dan 79 72 04
EXTD=
EXTT0=
EXTT1=
EXTT2=
EXTT3=
EXTT4=
EXTT5=
EXTT6=
EXTT7=
EXTT8=
EXTT9=
EXTT10=
EXTT11=
EXTT12=
PLAYORDER=
